<svg width="24" height="24" viewBox="0 0 24 24" fill="none" xmlns="http://www.w3.org/2000/svg">
<path d="M22 10V9C22 5 21 4 17 4H7C3 4 2 5 2 9V9.5C2.66304 9.5 3.29893 9.76339 3.76777 10.2322C4.23661 10.7011 4.5 11.337 4.5 12C4.5 12.663 4.23661 13.2989 3.76777 13.7678C3.29893 14.2366 2.66304 14.5 2 14.5V15C2 19 3 20 7 20H17C21 20 22 19 22 15C21.337 15 20.7011 14.7366 20.2322 14.2678C19.7634 13.7989 19.5 13.163 19.5 12.5" stroke="black" stroke-width="1.5" stroke-linecap="round" stroke-linejoin="round"/>
<path d="M10 4V20" stroke="black" stroke-width="1.5" stroke-linecap="round" stroke-linejoin="round" stroke-dasharray="5 5"/>
</svg>
