<svg width="24" height="24" viewBox="0 0 24 24" fill="none" xmlns="http://www.w3.org/2000/svg">
<path d="M2.5 14.07V11.51C2.5 9.44 4.19 7.75 6.26 7.75H17.74C19.81 7.75 21.5 9.44 21.5 11.51V12.95H19.48C18.92 12.95 18.41 13.17 18.04 13.55C17.62 13.96 17.38 14.55 17.44 15.18C17.53 16.26 18.52 17.05 19.6 17.05H21.5V18.24C21.5 20.31 19.81 22 17.74 22H6.26C4.19 22 2.5 20.31 2.5 18.24" stroke="black" stroke-width="1.5" stroke-linecap="round" stroke-linejoin="round"/>
<path d="M12.281 2.171C12.5687 2.06259 12.8784 2.02561 13.1835 2.06323C13.4886 2.10085 13.7801 2.21196 14.0328 2.387C14.2856 2.56205 14.492 2.79581 14.6345 3.06823C14.7771 3.34064 14.8513 3.64357 14.851 3.951V7.751M2.5 12.412V7.842C2.5 6.652 3.23 5.592 4.34 5.172L8.31 3.672M7 12H14M22.559 13.97V16.03C22.559 16.58 22.119 17.03 21.559 17.05H19.599C18.519 17.05 17.529 16.26 17.439 15.18C17.379 14.55 17.619 13.96 18.039 13.55C18.409 13.17 18.919 12.95 19.479 12.95H21.559C22.119 12.97 22.559 13.42 22.559 13.97V13.97Z" stroke="black" stroke-width="1.5" stroke-linecap="round" stroke-linejoin="round"/>
</svg>
